<?xml version="1.0" encoding="UTF-8" standalone="no"?>
<svg
   xmlns:dc="http://purl.org/dc/elements/1.1/"
   xmlns:cc="http://creativecommons.org/ns#"
   xmlns:rdf="http://www.w3.org/1999/02/22-rdf-syntax-ns#"
   xmlns:svg="http://www.w3.org/2000/svg"
   xmlns="http://www.w3.org/2000/svg"
   version="1.1"
   id="svg2"
   viewBox="0 0 177.85742 143.57226"
   height="40.519283mm"
   width="50.195316mm">
  <defs
     id="defs4" />
  <metadata
     id="metadata7">
    <rdf:RDF>
      <cc:Work
         rdf:about="">
        <dc:format>image/svg+xml</dc:format>
        <dc:type
           rdf:resource="http://purl.org/dc/dcmitype/StillImage" />
        <dc:title></dc:title>
      </cc:Work>
    </rdf:RDF>
  </metadata>
  <g
     transform="translate(-38.238009,-13.823241)"
     id="layer1">
    <path
       id="path4245"
       d="m 38.238009,13.823241 0,143.572259 135.000001,0 42.85742,-74.285149 -42.85742,-68.92969 0,-0.35742 -135.000001,0 z m 38.39844,29.80664 c 6.24244,0 9.21875,10.05834 9.21875,16.30078 0,6.24244 -2.97631,16.30078 -9.21875,16.30078 -6.24244,0 -9.2207,-10.05834 -9.2207,-16.30078 0,-6.24244 2.97826,-16.30078 9.2207,-16.30078 z m 69.810551,0 c 6.24244,0 9.2207,10.05834 9.2207,16.30078 0,6.24244 -2.97826,16.30078 -9.2207,16.30078 -6.24244,0 -9.22071,-10.05834 -9.22071,-16.30078 0,-6.24244 2.97827,-16.30078 9.22071,-16.30078 z m 11.52539,53.01758 c 0,0 -5.26867,35.235939 -47.74805,34.248039 C 67.744949,129.90761 63.464569,96.977541 63.464569,96.977531 l 94.507821,-0.33007 z"
       style="fill:#25a52f;fill-opacity:1;fill-rule:evenodd;stroke:none;stroke-width:1px;stroke-linecap:butt;stroke-linejoin:miter;stroke-opacity:1" />
    <path
       id="path4230"
       d="m 585.41736,332.75482 c 0,6.24244 2.9779,16.30023 9.22034,16.30023 6.24244,0 9.22033,-10.05779 9.22033,-16.30023 0,-6.24244 -2.97789,-16.30023 -9.22033,-16.30023 -6.24244,0 -9.22034,10.05779 -9.22034,16.30023 z"
       style="opacity:1;fill:none;fill-rule:evenodd;stroke:none;stroke-width:1px;stroke-linecap:butt;stroke-linejoin:miter;stroke-opacity:1" />
  </g>
</svg>
