<?xml version="1.0" encoding="UTF-8" standalone="no"?>
<svg
   xmlns:dc="http://purl.org/dc/elements/1.1/"
   xmlns:cc="http://creativecommons.org/ns#"
   xmlns:rdf="http://www.w3.org/1999/02/22-rdf-syntax-ns#"
   xmlns:svg="http://www.w3.org/2000/svg"
   xmlns="http://www.w3.org/2000/svg"
   xmlns:sodipodi="http://sodipodi.sourceforge.net/DTD/sodipodi-0.dtd"
   xmlns:inkscape="http://www.inkscape.org/namespaces/inkscape"
   version="1.1"
   id="svg2"
   viewBox="0 0 177.85743 143.57226"
   height="40.519283mm"
   width="50.19532mm"
   inkscape:version="0.91 r13725"
   sodipodi:docname="bored_face.svg">
  <sodipodi:namedview
     pagecolor="#ffffff"
     bordercolor="#666666"
     borderopacity="1"
     objecttolerance="10"
     gridtolerance="10"
     guidetolerance="10"
     inkscape:pageopacity="0"
     inkscape:pageshadow="2"
     inkscape:window-width="1486"
     inkscape:window-height="789"
     id="namedview4873"
     showgrid="false"
     inkscape:zoom="1.6248969"
     inkscape:cx="16.308727"
     inkscape:cy="71.786132"
     inkscape:window-x="0"
     inkscape:window-y="24"
     inkscape:window-maximized="0"
     inkscape:current-layer="svg2" />
  <defs
     id="defs4" />
  <metadata
     id="metadata7">
    <rdf:RDF>
      <cc:Work
         rdf:about="">
        <dc:format>image/svg+xml</dc:format>
        <dc:type
           rdf:resource="http://purl.org/dc/dcmitype/StillImage" />
        <dc:title />
      </cc:Work>
    </rdf:RDF>
  </metadata>
  <path
     id="path4147"
     d="M 42.857422 0 L 42.857422 0.35742188 L 0 69.285156 L 42.857422 143.57227 L 177.85742 143.57227 L 177.85742 0 L 42.857422 0 z M 74.15625 33.503906 C 80.39869 33.503906 83.376953 43.560294 83.376953 49.802734 C 83.376953 56.045174 80.39869 66.103516 74.15625 66.103516 C 67.91381 66.103516 64.935547 56.045174 64.935547 49.802734 C 64.935547 43.560294 67.91381 33.503906 74.15625 33.503906 z M 143.96875 33.503906 C 150.21119 33.503906 153.1875 43.560294 153.1875 49.802734 C 153.1875 56.045174 150.21119 66.103516 143.96875 66.103516 C 137.72631 66.103516 134.74805 56.045174 134.74805 49.802734 C 134.74805 43.560294 137.72631 33.503906 143.96875 33.503906 z M 158.25781 92.267578 L 158.30273 99.617188 L 58.972656 114.48242 L 58.972656 107.53516 L 158.25781 92.267578 z "
     style="fill:#dadada;fill-opacity:1;fill-rule:evenodd;stroke:none;stroke-width:1px;stroke-linecap:butt;stroke-linejoin:miter;stroke-opacity:1" />
</svg>
