<?xml version="1.0" encoding="UTF-8" standalone="no"?>
<svg
   xmlns:dc="http://purl.org/dc/elements/1.1/"
   xmlns:cc="http://creativecommons.org/ns#"
   xmlns:rdf="http://www.w3.org/1999/02/22-rdf-syntax-ns#"
   xmlns:svg="http://www.w3.org/2000/svg"
   xmlns="http://www.w3.org/2000/svg"
   xmlns:sodipodi="http://sodipodi.sourceforge.net/DTD/sodipodi-0.dtd"
   xmlns:inkscape="http://www.inkscape.org/namespaces/inkscape"
   version="1.1"
   id="svg2"
   viewBox="0 0 177.85742 143.57226"
   height="40.519283mm"
   width="50.195316mm"
   inkscape:version="0.91 r13725"
   sodipodi:docname="happy_face.svg">
  <sodipodi:namedview
     pagecolor="#ffffff"
     bordercolor="#666666"
     borderopacity="1"
     objecttolerance="10"
     gridtolerance="10"
     guidetolerance="10"
     inkscape:pageopacity="0"
     inkscape:pageshadow="2"
     inkscape:window-width="1920"
     inkscape:window-height="1056"
     id="namedview4240"
     showgrid="false"
     inkscape:zoom="1.1303089"
     inkscape:cx="46.486827"
     inkscape:cy="73.489979"
     inkscape:window-x="0"
     inkscape:window-y="24"
     inkscape:window-maximized="1"
     inkscape:current-layer="svg2" />
  <defs
     id="defs4" />
  <metadata
     id="metadata7">
    <rdf:RDF>
      <cc:Work
         rdf:about="">
        <dc:format>image/svg+xml</dc:format>
        <dc:type
           rdf:resource="http://purl.org/dc/dcmitype/StillImage" />
        <dc:title />
      </cc:Work>
    </rdf:RDF>
  </metadata>
  <path
     inkscape:connector-curvature="0"
     style="fill:#3cd348;fill-opacity:1;fill-rule:evenodd;stroke:none;stroke-width:1px;stroke-linecap:butt;stroke-linejoin:miter;stroke-opacity:1"
     d="M 0,0 L 0,143.57226 L 135,143.57226 L 177.85742,69.28711 L 135,0.35742 L 135,0 L 0,0 Z M 38.39844,29.80664 C 44.64088,29.80664 47.61719,39.86498 47.61719,46.10742 C 47.61719,52.34986 44.64088,62.4082 38.39844,62.4082 C 32.156,62.4082 29.17774,52.34986 29.17774,46.10742 C 29.17774,39.86498 32.156,29.80664 38.39844,29.80664 Z M 108.20899,29.80664 C 114.45143,29.80664 117.42969,39.86498 117.42969,46.10742 C 117.42969,52.34986 114.45143,62.4082 108.20899,62.4082 C 101.96655,62.4082 98.988281,52.34986 98.988281,46.10742 C 98.988281,39.86498 101.96655,29.80664 108.20899,29.80664 Z M 119.73438,82.82422 C 119.73438,82.82422 114.46571,118.06016 71.986331,117.07226 C 29.50694,116.08437 25.22656,83.1543 25.22656,83.15429 L 119.73438,82.82422 Z"
     id="path4245" />
</svg>
