<?xml version="1.0" encoding="UTF-8" standalone="no"?>
<svg
   xmlns:dc="http://purl.org/dc/elements/1.1/"
   xmlns:cc="http://creativecommons.org/ns#"
   xmlns:rdf="http://www.w3.org/1999/02/22-rdf-syntax-ns#"
   xmlns:svg="http://www.w3.org/2000/svg"
   xmlns="http://www.w3.org/2000/svg"
   xmlns:sodipodi="http://sodipodi.sourceforge.net/DTD/sodipodi-0.dtd"
   xmlns:inkscape="http://www.inkscape.org/namespaces/inkscape"
   width="253.38538"
   height="273.29634"
   viewBox="0 0 253.38538 273.29634"
   id="svg2"
   version="1.1"
   inkscape:version="0.91 r13725"
   sodipodi:docname="level8.svg">
  <sodipodi:namedview
     pagecolor="#ffffff"
     bordercolor="#666666"
     borderopacity="1"
     objecttolerance="10"
     gridtolerance="10"
     guidetolerance="10"
     inkscape:pageopacity="0"
     inkscape:pageshadow="2"
     inkscape:window-width="1920"
     inkscape:window-height="1056"
     id="namedview4153"
     showgrid="true"
     inkscape:zoom="4.3620096"
     inkscape:cx="24.265337"
     inkscape:cy="118.4429"
     inkscape:window-x="0"
     inkscape:window-y="24"
     inkscape:window-maximized="1"
     inkscape:current-layer="powerlines"
     inkscape:object-paths="true"
     inkscape:snap-intersection-paths="true"
     inkscape:object-nodes="true"
     inkscape:snap-smooth-nodes="true"
     inkscape:snap-midpoints="true"
     showguides="true"
     inkscape:guide-bbox="true"
     inkscape:snap-nodes="false"
     inkscape:snap-bbox="true">
    <inkscape:grid
       type="xygrid"
       id="grid4316" />
  </sodipodi:namedview>
  <defs
     id="defs4">
    <pattern
       y="0"
       x="0"
       height="6"
       width="6"
       patternUnits="userSpaceOnUse"
       id="EMFhbasepattern" />
  </defs>
  <metadata
     id="metadata7">
    <rdf:RDF>
      <cc:Work
         rdf:about="">
        <dc:format>image/svg+xml</dc:format>
        <dc:type
           rdf:resource="http://purl.org/dc/dcmitype/StillImage" />
        <dc:title />
      </cc:Work>
    </rdf:RDF>
  </metadata>
  <g
     inkscape:groupmode="layer"
     id="background"
     inkscape:label="background">
    <rect
       style="color:#000000;clip-rule:nonzero;display:inline;overflow:visible;visibility:visible;opacity:1;isolation:auto;mix-blend-mode:normal;color-interpolation:sRGB;color-interpolation-filters:linearRGB;solid-color:#000000;solid-opacity:1;fill:#1a1a1a;fill-opacity:1;fill-rule:nonzero;stroke:none;stroke-width:1.45867622px;stroke-linecap:butt;stroke-linejoin:miter;stroke-miterlimit:4;stroke-dasharray:none;stroke-dashoffset:0;stroke-opacity:1;color-rendering:auto;image-rendering:auto;shape-rendering:auto;text-rendering:auto;enable-background:accumulate"
       id="rect4145"
       width="253.7641"
       height="273.71933"
       x="-0.009294847"
       y="-0.078447528" />
  </g>
  <g
     inkscape:groupmode="layer"
     inkscape:label="powerlines"
     id="powerlines"
     powerlines=""
     transform="translate(0,2)"
     style="display:inline">
    <path
       style="fill:none;fill-rule:evenodd;stroke:#dadada;stroke-width:1px;stroke-linecap:butt;stroke-linejoin:miter;stroke-opacity:1"
       d="m 133.40169,66.030927 0,-34.936824 -38.61691,0 0,56.564074 -29.323741,0"
       id="path4320"
       inkscape:connector-curvature="0"
       sodipodi:nodetypes="ccccc" />
    <path
       sodipodi:nodetypes="ccccc"
       inkscape:connector-curvature="0"
       id="path4318"
       d="m 131.92411,104.54853 0,16.27859 34.70713,0 0,83.95024 -75.322913,0.4585"
       style="fill:none;fill-rule:evenodd;stroke:#dadada;stroke-width:1.02168357px;stroke-linecap:butt;stroke-linejoin:miter;stroke-opacity:1" />
    <path
       style="fill:none;fill-rule:evenodd;stroke:#dadada;stroke-width:1px;stroke-linecap:butt;stroke-linejoin:miter;stroke-opacity:1"
       d="m 125.447,188.68246 -0.22925,-68.54638 -102.246452,-0.45851 0.4585,-22.466713 89.408332,0.45851"
       id="path4274"
       inkscape:connector-curvature="0"
       sodipodi:nodetypes="ccccc" />
    <path
       style="fill:none;fill-rule:evenodd;stroke:#dadada;stroke-width:1px;stroke-linecap:butt;stroke-linejoin:miter;stroke-opacity:1"
       d="m 30.475878,259.62471 114.770862,0 -0.64843,-116.71613"
       id="path4276"
       inkscape:connector-curvature="0" />
    <path
       style="fill:none;fill-rule:evenodd;stroke:#dadada;stroke-width:1px;stroke-linecap:butt;stroke-linejoin:miter;stroke-opacity:1"
       d="m 44.741184,210.99299 -31.772725,0 0,-138.762509 102.450821,0"
       id="path4323"
       inkscape:connector-curvature="0"
       sodipodi:nodetypes="cccc" />
    <path
       style="fill:none;fill-rule:evenodd;stroke:#dadada;stroke-width:1px;stroke-linecap:butt;stroke-linejoin:miter;stroke-opacity:1"
       d="M 201.69887,91.224666 180.91,91.034747 l 0,42.795913 -45.99869,0.0787"
       id="path4325"
       inkscape:connector-curvature="0"
       sodipodi:nodetypes="cccc" />
    <path
       style="fill:none;fill-rule:evenodd;stroke:#dadada;stroke-width:1px;stroke-linecap:butt;stroke-linejoin:miter;stroke-opacity:1"
       d="M 198.07384,222.23637 L 106.37299,221.77787 L 106.83149,133.28655"
       id="path4327"
       inkscape:connector-curvature="0"
       sodipodi:nodetypes="ccc" />
  </g>
  <g
     inkscape:groupmode="layer"
     inkscape:label="generators"
     transform="translate(114.58687,48.403002)"
     id="generators">
    <rect
       y="14.325647"
       x="-9.4953241"
       height="54.208466"
       width="54.208466"
       id="rect4209"
       style="opacity:1;fill:#000000;fill-opacity:1;stroke:#dadada;stroke-width:1;stroke-linejoin:round;stroke-miterlimit:4;stroke-dasharray:none;stroke-dashoffset:0;stroke-opacity:1" />
  </g>
  <g
     inkscape:groupmode="layer"
     inkscape:label="switches"
     transform="translate(-85.731594,24.276162)"
     id="switches" />
  <g
     inkscape:groupmode="layer"
     id="decorations"
     inkscape:label="decorations"
     style="display:inline">
    <path
       style="fill:#dadada;fill-opacity:1;fill-rule:evenodd;stroke:none;stroke-width:1;stroke-linecap:butt;stroke-linejoin:miter;stroke-miterlimit:4;stroke-dasharray:none;stroke-opacity:1"
       d="m 131.55505,73.734427 10.9249,0.35624 -9.38116,14.01237 10.33115,0 -19.23732,19.356063 7.00619,-14.249863 -8.90616,-0.11875 z"
       id="path4159"
       inkscape:connector-curvature="0" />
    <g
       transform="matrix(0.45390647,0,0,0.45390647,-65.923306,66.461307)"
       id="g4243"
       style="stroke:#ffffff;stroke-width:0.66092908;stroke-miterlimit:4;stroke-dasharray:none;stroke-opacity:1">
      <path
         inkscape:connector-curvature="0"
         id="path4245"
         d="m 241.49534,314.36012 c 12.63639,27.178 60.53627,16.3195 65.00244,-5.12233 0,0 0.67733,-0.50772 1.37583,0.6985 0.71967,1.22767 -0.16933,5.41867 -0.16933,5.41867 -6.77334,28.72316 -61.89097,27.79183 -66.20894,-0.99484 z"
         style="fill:#b87b0a;fill-opacity:1;fill-rule:evenodd;stroke:#ffffff;stroke-width:0.66092908;stroke-linecap:butt;stroke-linejoin:miter;stroke-miterlimit:4;stroke-dasharray:none;stroke-opacity:1" />
      <path
         inkscape:connector-curvature="0"
         id="path4247"
         d="m 305.56644,303.90407 c 0.61384,-3.02683 0.40217,-5.2705 -1.397,-6.01133 -5.60916,18.05488 -45.76205,29.46372 -60.23996,5.88433 -2.15897,0.9525 -2.81514,3.048 -1.16414,5.84172 14.35089,24.17233 58.8006,13.92767 62.8011,-5.71472 z"
         style="fill:#b87b0a;fill-opacity:1;fill-rule:evenodd;stroke:#ffffff;stroke-width:0.66092908;stroke-linecap:butt;stroke-linejoin:miter;stroke-miterlimit:4;stroke-dasharray:none;stroke-opacity:1" />
      <path
         inkscape:connector-curvature="0"
         id="path4249"
         d="m 243.99298,303.8194 c 14.41441,23.53706 53.9958,11.93772 60.2188,-5.99016 1.86266,-5.3975 -1.24884,-6.70984 -1.24884,-6.70984 -6.11716,18.88039 -42.60821,27.62222 -58.0598,6.64634 0,0 -3.13263,1.9685 -0.93133,5.94783 z"
         style="fill:#b87b0a;fill-opacity:1;fill-rule:evenodd;stroke:#ffffff;stroke-width:0.66092908;stroke-miterlimit:4;stroke-dasharray:none;stroke-opacity:1" />
      <path
         inkscape:connector-curvature="0"
         id="path4251"
         d="m 243.99298,303.8194 c 14.41441,23.53706 53.9958,11.93772 60.2188,-5.99016 1.86266,-5.3975 -1.24884,-6.70984 -1.24884,-6.70984 -6.11716,18.88039 -42.60821,27.62222 -58.0598,6.64634 0,0 -3.13263,1.9685 -0.93133,5.94783"
         style="fill:none;stroke:#ffffff;stroke-width:0.66092908;stroke-linecap:butt;stroke-linejoin:miter;stroke-miterlimit:4;stroke-dasharray:none;stroke-opacity:1" />
      <path
         inkscape:connector-curvature="0"
         id="path4253"
         d="m 253.92006,249.20969 c 7.6835,7.66233 35.77138,4.21216 40.02588,-7.34484 2.39184,-6.51933 -1.29116,-7.70466 -1.29116,-7.70466 -4.04284,10.37166 -30.90305,14.605 -37.40122,7.97983 -0.71967,-0.635 -6.5405,1.86267 -1.3335,7.06967 z"
         style="fill:#b87b0a;fill-opacity:1;fill-rule:evenodd;stroke:#ffffff;stroke-width:0.66092908;stroke-linecap:butt;stroke-linejoin:miter;stroke-miterlimit:4;stroke-dasharray:none;stroke-opacity:1" />
      <path
         inkscape:connector-curvature="0"
         id="path4255"
         d="m 245.98264,291.73324 c 15.72675,18.79572 50.41864,10.01183 55.87964,-7.45067 0,0 3.28083,1.37583 1.2065,6.75217 -7.40834,19.17672 -42.69289,27.87622 -57.8693,6.94266 -3.70414,-5.12233 0.78316,-6.24416 0.78316,-6.24416 z"
         style="fill:#b87b0a;fill-opacity:1;fill-rule:evenodd;stroke:#ffffff;stroke-width:0.66092908;stroke-linecap:butt;stroke-linejoin:miter;stroke-miterlimit:4;stroke-dasharray:none;stroke-opacity:1" />
      <path
         inkscape:connector-curvature="0"
         id="path4257"
         d="m 247.35839,284.1344 c 15.47284,18.96534 47.51889,10.56217 53.00105,-6.96383 2.18017,-6.92122 -1.0795,-6.85772 -1.0795,-6.85772 -6.13833,17.01772 -35.36921,25.16689 -50.67271,7.45039 0,0 -5.27039,1.41816 -1.24884,6.37116 z"
         style="fill:#b87b0a;fill-opacity:1;fill-rule:evenodd;stroke:#ffffff;stroke-width:0.66092908;stroke-linecap:butt;stroke-linejoin:miter;stroke-miterlimit:4;stroke-dasharray:none;stroke-opacity:1" />
      <path
         inkscape:connector-curvature="0"
         id="path4259"
         d="m 251.10489,264.34385 c 14.986,12.17055 39.36972,6.13834 45.23289,-9.7155 2.26483,-6.1595 -1.24884,-6.64633 -1.24884,-6.64633 -4.84716,12.319 -31.30521,18.4785 -42.48121,9.05933 0,0 -7.93742,2.07434 -1.50284,7.3025 z"
         style="fill:#b87b0a;fill-opacity:1;fill-rule:evenodd;stroke:#ffffff;stroke-width:0.66092908;stroke-linecap:butt;stroke-linejoin:miter;stroke-miterlimit:4;stroke-dasharray:none;stroke-opacity:1" />
      <path
         inkscape:connector-curvature="0"
         id="path4261"
         d="m 292.65478,234.16019 c -4.04284,10.37166 -30.92422,14.62616 -37.40122,7.97983 -4.65667,-4.7625 1.16417,-6.30767 1.16417,-6.30767 6.731,9.31334 30.90305,5.0165 36.23705,-1.67216 z"
         style="fill:#b87b0a;fill-opacity:1;fill-rule:evenodd;stroke:#ffffff;stroke-width:0.66092908;stroke-linecap:butt;stroke-linejoin:miter;stroke-miterlimit:4;stroke-dasharray:none;stroke-opacity:1" />
      <path
         inkscape:connector-curvature="0"
         id="path4263"
         d="m 242.76534,309.59762 c 14.64722,24.02417 58.75827,14.0335 62.8011,-5.71472 2.58234,0.16934 1.50284,3.8735 1.143,5.16467 -0.67733,2.37039 -7.15433,20.84889 -32.93505,21.42039 -26.0985,0.5715 -32.13088,-15.621 -32.27905,-15.89617 -0.78317,-2.32833 -0.127,-3.8735 1.27,-4.97417 z"
         style="fill:#b87b0a;fill-opacity:1;fill-rule:evenodd;stroke:#ffffff;stroke-width:0.66092908;stroke-linecap:butt;stroke-linejoin:miter;stroke-miterlimit:4;stroke-dasharray:none;stroke-opacity:1" />
      <path
         inkscape:connector-curvature="0"
         id="path4265"
         d="m 301.86228,284.28257 c 1.73566,-5.22817 -1.50284,-7.112 -1.50284,-7.112 -5.73616,17.44133 -36.91438,25.73867 -52.97988,6.985 0.0212,0.0423 -5.73605,2.83633 -1.39692,7.57767 17.42009,19.07088 50.10114,10.033 55.87964,-7.45067 z"
         style="fill:#b87b0a;fill-opacity:1;fill-rule:evenodd;stroke:#ffffff;stroke-width:0.66092908;stroke-linecap:butt;stroke-linejoin:miter;stroke-miterlimit:4;stroke-dasharray:none;stroke-opacity:1" />
      <path
         inkscape:connector-curvature="0"
         id="path4267"
         d="m 248.60723,277.76324 c 15.09183,17.907 44.36505,9.50383 50.67271,-7.45039 2.96334,-8.001 -1.50283,-7.9375 -1.50283,-7.9375 -6.68867,16.55205 -33.86638,21.97072 -47.87872,8.48784 0,0 -5.79958,1.56605 -1.29116,6.90005 z"
         style="fill:#b87b0a;fill-opacity:1;fill-rule:evenodd;stroke:#ffffff;stroke-width:0.66092908;stroke-linecap:butt;stroke-linejoin:miter;stroke-miterlimit:4;stroke-dasharray:none;stroke-opacity:1" />
      <path
         inkscape:connector-curvature="0"
         id="path4269"
         d="m 251.10489,264.34385 c 15.113,12.00122 39.47555,6.18067 45.23289,-9.7155 0,0 4.10633,0.59267 1.43933,7.747 -6.68867,16.55205 -33.76055,21.86489 -47.87872,8.48784 -5.03758,-4.7625 1.2065,-6.51934 1.2065,-6.51934 z"
         style="fill:#b87b0a;fill-opacity:1;fill-rule:evenodd;stroke:#ffffff;stroke-width:0.66092908;stroke-linecap:butt;stroke-linejoin:miter;stroke-miterlimit:4;stroke-dasharray:none;stroke-opacity:1" />
      <path
         inkscape:connector-curvature="0"
         id="path4271"
         d="m 252.60773,257.04135 c 11.26066,9.3345 37.61288,3.25967 42.48121,-9.05933 2.43417,-6.1595 -1.143,-6.11717 -1.143,-6.11717 -4.23333,11.557 -32.68105,15.34584 -40.02588,7.34484 0,0 -7.97975,2.286 -1.31233,7.83166 z"
         style="fill:#b87b0a;fill-opacity:1;fill-rule:evenodd;stroke:#ffffff;stroke-width:0.66092908;stroke-linecap:butt;stroke-linejoin:miter;stroke-miterlimit:4;stroke-dasharray:none;stroke-opacity:1" />
      <path
         inkscape:connector-curvature="0"
         id="path4273"
         d="m 323.13449,189.75308 c 0,28.72289 -23.28305,52.00594 -52.00593,52.00594 -28.72305,0 -52.00622,-23.28305 -52.00622,-52.00594 0,-28.72305 23.28317,-52.00621 52.00622,-52.00621 28.72288,0 52.00593,23.28316 52.00593,52.00621 z"
         style="fill:#b6bac5;fill-opacity:1;fill-rule:nonzero;stroke:#ffffff;stroke-width:0.66092908;stroke-linecap:butt;stroke-linejoin:miter;stroke-miterlimit:4;stroke-dasharray:none;stroke-opacity:1" />
      <path
         inkscape:connector-curvature="0"
         id="path4275"
         d="m 275.99689,200.8018 c -17.2085,9.8425 -37.82469,5.99017 -46.05847,-8.61455 -8.2126,-14.605 -0.93133,-34.43802 16.27706,-44.28047 17.20841,-9.84242 37.82446,-5.99011 46.0583,8.61478 8.21266,14.60486 0.93133,34.43802 -16.27689,44.28024 z"
         style="fill:#e0e2e7;fill-opacity:1;fill-rule:nonzero;stroke:#ffffff;stroke-width:0.66092908;stroke-linecap:butt;stroke-linejoin:miter;stroke-miterlimit:4;stroke-dasharray:none;stroke-opacity:1" />
      <path
         inkscape:connector-curvature="0"
         id="path4277"
         d="m 262.23856,170.21625 c -6.90033,1.29117 -13.41967,-2.49767 -14.5415,-8.48772 -1.12175,-5.96897 3.59833,-11.87441 10.51983,-13.16558 6.90034,-1.29117 13.41967,2.5188 14.5415,8.48778 1.12184,5.99011 -3.59833,11.87435 -10.51983,13.16552 z"
         style="fill:#ffffff;fill-opacity:1;fill-rule:nonzero;stroke:#ffffff;stroke-width:0.66092908;stroke-linecap:butt;stroke-linejoin:miter;stroke-miterlimit:4;stroke-dasharray:none;stroke-opacity:1" />
      <path
         inkscape:connector-curvature="0"
         id="path4279"
         d="m 301.03678,147.20828 c 31.83438,55.37152 -47.43422,100.24457 -80.05179,56.34519 6.20179,22.56367 26.73324,38.20555 50.14357,38.20555 28.72288,0 52.00593,-23.28305 52.00593,-52.00594 0,-13.50433 -7.47183,-34.09935 -22.09771,-42.5448 z"
         style="fill:#777e94;fill-opacity:1;fill-rule:evenodd;stroke:#ffffff;stroke-width:0.66092908;stroke-linecap:butt;stroke-linejoin:miter;stroke-miterlimit:4;stroke-dasharray:none;stroke-opacity:1" />
      <path
         inkscape:connector-curvature="0"
         id="path4281"
         d="m 317.77933,173.87808 c 1.26999,42.20606 -42.4386,66.97077 -71.94485,58.16572 28.93475,15.93822 83.01501,-3.556 71.94485,-58.16572 z"
         style="fill:#8d96a6;fill-opacity:1;fill-rule:evenodd;stroke:#ffffff;stroke-width:0.66092908;stroke-linecap:butt;stroke-linejoin:miter;stroke-miterlimit:4;stroke-dasharray:none;stroke-opacity:1" />
    </g>
    <g
       id="g4233"
       transform="matrix(0.45390647,0,0,0.45390647,88.709792,77.327673)"
       style="stroke:#ffffff;stroke-width:0.66092908;stroke-miterlimit:4;stroke-dasharray:none;stroke-opacity:1">
      <path
         style="fill:#b87b0a;fill-opacity:1;fill-rule:evenodd;stroke:#ffffff;stroke-width:0.66092908;stroke-linecap:butt;stroke-linejoin:miter;stroke-miterlimit:4;stroke-dasharray:none;stroke-opacity:1"
         d="m 241.49534,314.36012 c 12.63639,27.178 60.53627,16.3195 65.00244,-5.12233 0,0 0.67733,-0.50772 1.37583,0.6985 0.71967,1.22767 -0.16933,5.41867 -0.16933,5.41867 -6.77334,28.72316 -61.89097,27.79183 -66.20894,-0.99484 z"
         id="path4235"
         inkscape:connector-curvature="0" />
      <path
         style="fill:#b87b0a;fill-opacity:1;fill-rule:evenodd;stroke:#ffffff;stroke-width:0.66092908;stroke-linecap:butt;stroke-linejoin:miter;stroke-miterlimit:4;stroke-dasharray:none;stroke-opacity:1"
         d="m 305.56644,303.90407 c 0.61384,-3.02683 0.40217,-5.2705 -1.397,-6.01133 -5.60916,18.05488 -45.76205,29.46372 -60.23996,5.88433 -2.15897,0.9525 -2.81514,3.048 -1.16414,5.84172 14.35089,24.17233 58.8006,13.92767 62.8011,-5.71472 z"
         id="path4237"
         inkscape:connector-curvature="0" />
      <path
         style="fill:#b87b0a;fill-opacity:1;fill-rule:evenodd;stroke:#ffffff;stroke-width:0.66092908;stroke-miterlimit:4;stroke-dasharray:none;stroke-opacity:1"
         d="m 243.99298,303.8194 c 14.41441,23.53706 53.9958,11.93772 60.2188,-5.99016 1.86266,-5.3975 -1.24884,-6.70984 -1.24884,-6.70984 -6.11716,18.88039 -42.60821,27.62222 -58.0598,6.64634 0,0 -3.13263,1.9685 -0.93133,5.94783 z"
         id="path4239"
         inkscape:connector-curvature="0" />
      <path
         style="fill:none;stroke:#ffffff;stroke-width:0.66092908;stroke-linecap:butt;stroke-linejoin:miter;stroke-miterlimit:4;stroke-dasharray:none;stroke-opacity:1"
         d="m 243.99298,303.8194 c 14.41441,23.53706 53.9958,11.93772 60.2188,-5.99016 1.86266,-5.3975 -1.24884,-6.70984 -1.24884,-6.70984 -6.11716,18.88039 -42.60821,27.62222 -58.0598,6.64634 0,0 -3.13263,1.9685 -0.93133,5.94783"
         id="path4241"
         inkscape:connector-curvature="0" />
      <path
         style="fill:#b87b0a;fill-opacity:1;fill-rule:evenodd;stroke:#ffffff;stroke-width:0.66092908;stroke-linecap:butt;stroke-linejoin:miter;stroke-miterlimit:4;stroke-dasharray:none;stroke-opacity:1"
         d="m 253.92006,249.20969 c 7.6835,7.66233 35.77138,4.21216 40.02588,-7.34484 2.39184,-6.51933 -1.29116,-7.70466 -1.29116,-7.70466 -4.04284,10.37166 -30.90305,14.605 -37.40122,7.97983 -0.71967,-0.635 -6.5405,1.86267 -1.3335,7.06967 z"
         id="path4243"
         inkscape:connector-curvature="0" />
      <path
         style="fill:#b87b0a;fill-opacity:1;fill-rule:evenodd;stroke:#ffffff;stroke-width:0.66092908;stroke-linecap:butt;stroke-linejoin:miter;stroke-miterlimit:4;stroke-dasharray:none;stroke-opacity:1"
         d="m 245.98264,291.73324 c 15.72675,18.79572 50.41864,10.01183 55.87964,-7.45067 0,0 3.28083,1.37583 1.2065,6.75217 -7.40834,19.17672 -42.69289,27.87622 -57.8693,6.94266 -3.70414,-5.12233 0.78316,-6.24416 0.78316,-6.24416 z"
         id="path4246"
         inkscape:connector-curvature="0" />
      <path
         style="fill:#b87b0a;fill-opacity:1;fill-rule:evenodd;stroke:#ffffff;stroke-width:0.66092908;stroke-linecap:butt;stroke-linejoin:miter;stroke-miterlimit:4;stroke-dasharray:none;stroke-opacity:1"
         d="m 247.35839,284.1344 c 15.47284,18.96534 47.51889,10.56217 53.00105,-6.96383 2.18017,-6.92122 -1.0795,-6.85772 -1.0795,-6.85772 -6.13833,17.01772 -35.36921,25.16689 -50.67271,7.45039 0,0 -5.27039,1.41816 -1.24884,6.37116 z"
         id="path4248"
         inkscape:connector-curvature="0" />
      <path
         style="fill:#b87b0a;fill-opacity:1;fill-rule:evenodd;stroke:#ffffff;stroke-width:0.66092908;stroke-linecap:butt;stroke-linejoin:miter;stroke-miterlimit:4;stroke-dasharray:none;stroke-opacity:1"
         d="m 251.10489,264.34385 c 14.986,12.17055 39.36972,6.13834 45.23289,-9.7155 2.26483,-6.1595 -1.24884,-6.64633 -1.24884,-6.64633 -4.84716,12.319 -31.30521,18.4785 -42.48121,9.05933 0,0 -7.93742,2.07434 -1.50284,7.3025 z"
         id="path4250"
         inkscape:connector-curvature="0" />
      <path
         style="fill:#b87b0a;fill-opacity:1;fill-rule:evenodd;stroke:#ffffff;stroke-width:0.66092908;stroke-linecap:butt;stroke-linejoin:miter;stroke-miterlimit:4;stroke-dasharray:none;stroke-opacity:1"
         d="m 292.65478,234.16019 c -4.04284,10.37166 -30.92422,14.62616 -37.40122,7.97983 -4.65667,-4.7625 1.16417,-6.30767 1.16417,-6.30767 6.731,9.31334 30.90305,5.0165 36.23705,-1.67216 z"
         id="path4252"
         inkscape:connector-curvature="0" />
      <path
         style="fill:#b87b0a;fill-opacity:1;fill-rule:evenodd;stroke:#ffffff;stroke-width:0.66092908;stroke-linecap:butt;stroke-linejoin:miter;stroke-miterlimit:4;stroke-dasharray:none;stroke-opacity:1"
         d="m 242.76534,309.59762 c 14.64722,24.02417 58.75827,14.0335 62.8011,-5.71472 2.58234,0.16934 1.50284,3.8735 1.143,5.16467 -0.67733,2.37039 -7.15433,20.84889 -32.93505,21.42039 -26.0985,0.5715 -32.13088,-15.621 -32.27905,-15.89617 -0.78317,-2.32833 -0.127,-3.8735 1.27,-4.97417 z"
         id="path4254"
         inkscape:connector-curvature="0" />
      <path
         style="fill:#b87b0a;fill-opacity:1;fill-rule:evenodd;stroke:#ffffff;stroke-width:0.66092908;stroke-linecap:butt;stroke-linejoin:miter;stroke-miterlimit:4;stroke-dasharray:none;stroke-opacity:1"
         d="m 301.86228,284.28257 c 1.73566,-5.22817 -1.50284,-7.112 -1.50284,-7.112 -5.73616,17.44133 -36.91438,25.73867 -52.97988,6.985 0.0212,0.0423 -5.73605,2.83633 -1.39692,7.57767 17.42009,19.07088 50.10114,10.033 55.87964,-7.45067 z"
         id="path4256"
         inkscape:connector-curvature="0" />
      <path
         style="fill:#b87b0a;fill-opacity:1;fill-rule:evenodd;stroke:#ffffff;stroke-width:0.66092908;stroke-linecap:butt;stroke-linejoin:miter;stroke-miterlimit:4;stroke-dasharray:none;stroke-opacity:1"
         d="m 248.60723,277.76324 c 15.09183,17.907 44.36505,9.50383 50.67271,-7.45039 2.96334,-8.001 -1.50283,-7.9375 -1.50283,-7.9375 -6.68867,16.55205 -33.86638,21.97072 -47.87872,8.48784 0,0 -5.79958,1.56605 -1.29116,6.90005 z"
         id="path4258"
         inkscape:connector-curvature="0" />
      <path
         style="fill:#b87b0a;fill-opacity:1;fill-rule:evenodd;stroke:#ffffff;stroke-width:0.66092908;stroke-linecap:butt;stroke-linejoin:miter;stroke-miterlimit:4;stroke-dasharray:none;stroke-opacity:1"
         d="m 251.10489,264.34385 c 15.113,12.00122 39.47555,6.18067 45.23289,-9.7155 0,0 4.10633,0.59267 1.43933,7.747 -6.68867,16.55205 -33.76055,21.86489 -47.87872,8.48784 -5.03758,-4.7625 1.2065,-6.51934 1.2065,-6.51934 z"
         id="path4260"
         inkscape:connector-curvature="0" />
      <path
         style="fill:#b87b0a;fill-opacity:1;fill-rule:evenodd;stroke:#ffffff;stroke-width:0.66092908;stroke-linecap:butt;stroke-linejoin:miter;stroke-miterlimit:4;stroke-dasharray:none;stroke-opacity:1"
         d="m 252.60773,257.04135 c 11.26066,9.3345 37.61288,3.25967 42.48121,-9.05933 2.43417,-6.1595 -1.143,-6.11717 -1.143,-6.11717 -4.23333,11.557 -32.68105,15.34584 -40.02588,7.34484 0,0 -7.97975,2.286 -1.31233,7.83166 z"
         id="path4262"
         inkscape:connector-curvature="0" />
      <path
         style="fill:#b6bac5;fill-opacity:1;fill-rule:nonzero;stroke:#ffffff;stroke-width:0.66092908;stroke-linecap:butt;stroke-linejoin:miter;stroke-miterlimit:4;stroke-dasharray:none;stroke-opacity:1"
         d="m 323.13449,189.75308 c 0,28.72289 -23.28305,52.00594 -52.00593,52.00594 -28.72305,0 -52.00622,-23.28305 -52.00622,-52.00594 0,-28.72305 23.28317,-52.00621 52.00622,-52.00621 28.72288,0 52.00593,23.28316 52.00593,52.00621 z"
         id="path4264"
         inkscape:connector-curvature="0" />
      <path
         style="fill:#e0e2e7;fill-opacity:1;fill-rule:nonzero;stroke:#ffffff;stroke-width:0.66092908;stroke-linecap:butt;stroke-linejoin:miter;stroke-miterlimit:4;stroke-dasharray:none;stroke-opacity:1"
         d="m 275.99689,200.8018 c -17.2085,9.8425 -37.82469,5.99017 -46.05847,-8.61455 -8.2126,-14.605 -0.93133,-34.43802 16.27706,-44.28047 17.20841,-9.84242 37.82446,-5.99011 46.0583,8.61478 8.21266,14.60486 0.93133,34.43802 -16.27689,44.28024 z"
         id="path4266"
         inkscape:connector-curvature="0" />
      <path
         style="fill:#ffffff;fill-opacity:1;fill-rule:nonzero;stroke:#ffffff;stroke-width:0.66092908;stroke-linecap:butt;stroke-linejoin:miter;stroke-miterlimit:4;stroke-dasharray:none;stroke-opacity:1"
         d="m 262.23856,170.21625 c -6.90033,1.29117 -13.41967,-2.49767 -14.5415,-8.48772 -1.12175,-5.96897 3.59833,-11.87441 10.51983,-13.16558 6.90034,-1.29117 13.41967,2.5188 14.5415,8.48778 1.12184,5.99011 -3.59833,11.87435 -10.51983,13.16552 z"
         id="path4268"
         inkscape:connector-curvature="0" />
      <path
         style="fill:#777e94;fill-opacity:1;fill-rule:evenodd;stroke:#ffffff;stroke-width:0.66092908;stroke-linecap:butt;stroke-linejoin:miter;stroke-miterlimit:4;stroke-dasharray:none;stroke-opacity:1"
         d="m 301.03678,147.20828 c 31.83438,55.37152 -47.43422,100.24457 -80.05179,56.34519 6.20179,22.56367 26.73324,38.20555 50.14357,38.20555 28.72288,0 52.00593,-23.28305 52.00593,-52.00594 0,-13.50433 -7.47183,-34.09935 -22.09771,-42.5448 z"
         id="path4270"
         inkscape:connector-curvature="0" />
      <path
         style="fill:#8d96a6;fill-opacity:1;fill-rule:evenodd;stroke:#ffffff;stroke-width:0.66092908;stroke-linecap:butt;stroke-linejoin:miter;stroke-miterlimit:4;stroke-dasharray:none;stroke-opacity:1"
         d="m 317.77933,173.87808 c 1.26999,42.20606 -42.4386,66.97077 -71.94485,58.16572 28.93475,15.93822 83.01501,-3.556 71.94485,-58.16572 z"
         id="path4272"
         inkscape:connector-curvature="0" />
    </g>
    <g
       style="stroke:#ffffff;stroke-width:0.66092908;stroke-miterlimit:4;stroke-dasharray:none;stroke-opacity:1"
       transform="matrix(0.45390647,0,0,0.45390647,92.60033,-48.466379)"
       id="g4280">
      <path
         inkscape:connector-curvature="0"
         id="path4282"
         d="m 241.49534,314.36012 c 12.63639,27.178 60.53627,16.3195 65.00244,-5.12233 0,0 0.67733,-0.50772 1.37583,0.6985 0.71967,1.22767 -0.16933,5.41867 -0.16933,5.41867 -6.77334,28.72316 -61.89097,27.79183 -66.20894,-0.99484 z"
         style="fill:#b87b0a;fill-opacity:1;fill-rule:evenodd;stroke:#ffffff;stroke-width:0.66092908;stroke-linecap:butt;stroke-linejoin:miter;stroke-miterlimit:4;stroke-dasharray:none;stroke-opacity:1" />
      <path
         inkscape:connector-curvature="0"
         id="path4284"
         d="m 305.56644,303.90407 c 0.61384,-3.02683 0.40217,-5.2705 -1.397,-6.01133 -5.60916,18.05488 -45.76205,29.46372 -60.23996,5.88433 -2.15897,0.9525 -2.81514,3.048 -1.16414,5.84172 14.35089,24.17233 58.8006,13.92767 62.8011,-5.71472 z"
         style="fill:#b87b0a;fill-opacity:1;fill-rule:evenodd;stroke:#ffffff;stroke-width:0.66092908;stroke-linecap:butt;stroke-linejoin:miter;stroke-miterlimit:4;stroke-dasharray:none;stroke-opacity:1" />
      <path
         inkscape:connector-curvature="0"
         id="path4286"
         d="m 243.99298,303.8194 c 14.41441,23.53706 53.9958,11.93772 60.2188,-5.99016 1.86266,-5.3975 -1.24884,-6.70984 -1.24884,-6.70984 -6.11716,18.88039 -42.60821,27.62222 -58.0598,6.64634 0,0 -3.13263,1.9685 -0.93133,5.94783 z"
         style="fill:#b87b0a;fill-opacity:1;fill-rule:evenodd;stroke:#ffffff;stroke-width:0.66092908;stroke-miterlimit:4;stroke-dasharray:none;stroke-opacity:1" />
      <path
         inkscape:connector-curvature="0"
         id="path4288"
         d="m 243.99298,303.8194 c 14.41441,23.53706 53.9958,11.93772 60.2188,-5.99016 1.86266,-5.3975 -1.24884,-6.70984 -1.24884,-6.70984 -6.11716,18.88039 -42.60821,27.62222 -58.0598,6.64634 0,0 -3.13263,1.9685 -0.93133,5.94783"
         style="fill:none;stroke:#ffffff;stroke-width:0.66092908;stroke-linecap:butt;stroke-linejoin:miter;stroke-miterlimit:4;stroke-dasharray:none;stroke-opacity:1" />
      <path
         inkscape:connector-curvature="0"
         id="path4290"
         d="m 253.92006,249.20969 c 7.6835,7.66233 35.77138,4.21216 40.02588,-7.34484 2.39184,-6.51933 -1.29116,-7.70466 -1.29116,-7.70466 -4.04284,10.37166 -30.90305,14.605 -37.40122,7.97983 -0.71967,-0.635 -6.5405,1.86267 -1.3335,7.06967 z"
         style="fill:#b87b0a;fill-opacity:1;fill-rule:evenodd;stroke:#ffffff;stroke-width:0.66092908;stroke-linecap:butt;stroke-linejoin:miter;stroke-miterlimit:4;stroke-dasharray:none;stroke-opacity:1" />
      <path
         inkscape:connector-curvature="0"
         id="path4292"
         d="m 245.98264,291.73324 c 15.72675,18.79572 50.41864,10.01183 55.87964,-7.45067 0,0 3.28083,1.37583 1.2065,6.75217 -7.40834,19.17672 -42.69289,27.87622 -57.8693,6.94266 -3.70414,-5.12233 0.78316,-6.24416 0.78316,-6.24416 z"
         style="fill:#b87b0a;fill-opacity:1;fill-rule:evenodd;stroke:#ffffff;stroke-width:0.66092908;stroke-linecap:butt;stroke-linejoin:miter;stroke-miterlimit:4;stroke-dasharray:none;stroke-opacity:1" />
      <path
         inkscape:connector-curvature="0"
         id="path4294"
         d="m 247.35839,284.1344 c 15.47284,18.96534 47.51889,10.56217 53.00105,-6.96383 2.18017,-6.92122 -1.0795,-6.85772 -1.0795,-6.85772 -6.13833,17.01772 -35.36921,25.16689 -50.67271,7.45039 0,0 -5.27039,1.41816 -1.24884,6.37116 z"
         style="fill:#b87b0a;fill-opacity:1;fill-rule:evenodd;stroke:#ffffff;stroke-width:0.66092908;stroke-linecap:butt;stroke-linejoin:miter;stroke-miterlimit:4;stroke-dasharray:none;stroke-opacity:1" />
      <path
         inkscape:connector-curvature="0"
         id="path4296"
         d="m 251.10489,264.34385 c 14.986,12.17055 39.36972,6.13834 45.23289,-9.7155 2.26483,-6.1595 -1.24884,-6.64633 -1.24884,-6.64633 -4.84716,12.319 -31.30521,18.4785 -42.48121,9.05933 0,0 -7.93742,2.07434 -1.50284,7.3025 z"
         style="fill:#b87b0a;fill-opacity:1;fill-rule:evenodd;stroke:#ffffff;stroke-width:0.66092908;stroke-linecap:butt;stroke-linejoin:miter;stroke-miterlimit:4;stroke-dasharray:none;stroke-opacity:1" />
      <path
         inkscape:connector-curvature="0"
         id="path4298"
         d="m 292.65478,234.16019 c -4.04284,10.37166 -30.92422,14.62616 -37.40122,7.97983 -4.65667,-4.7625 1.16417,-6.30767 1.16417,-6.30767 6.731,9.31334 30.90305,5.0165 36.23705,-1.67216 z"
         style="fill:#b87b0a;fill-opacity:1;fill-rule:evenodd;stroke:#ffffff;stroke-width:0.66092908;stroke-linecap:butt;stroke-linejoin:miter;stroke-miterlimit:4;stroke-dasharray:none;stroke-opacity:1" />
      <path
         inkscape:connector-curvature="0"
         id="path4300"
         d="m 242.76534,309.59762 c 14.64722,24.02417 58.75827,14.0335 62.8011,-5.71472 2.58234,0.16934 1.50284,3.8735 1.143,5.16467 -0.67733,2.37039 -7.15433,20.84889 -32.93505,21.42039 -26.0985,0.5715 -32.13088,-15.621 -32.27905,-15.89617 -0.78317,-2.32833 -0.127,-3.8735 1.27,-4.97417 z"
         style="fill:#b87b0a;fill-opacity:1;fill-rule:evenodd;stroke:#ffffff;stroke-width:0.66092908;stroke-linecap:butt;stroke-linejoin:miter;stroke-miterlimit:4;stroke-dasharray:none;stroke-opacity:1" />
      <path
         inkscape:connector-curvature="0"
         id="path4302"
         d="m 301.86228,284.28257 c 1.73566,-5.22817 -1.50284,-7.112 -1.50284,-7.112 -5.73616,17.44133 -36.91438,25.73867 -52.97988,6.985 0.0212,0.0423 -5.73605,2.83633 -1.39692,7.57767 17.42009,19.07088 50.10114,10.033 55.87964,-7.45067 z"
         style="fill:#b87b0a;fill-opacity:1;fill-rule:evenodd;stroke:#ffffff;stroke-width:0.66092908;stroke-linecap:butt;stroke-linejoin:miter;stroke-miterlimit:4;stroke-dasharray:none;stroke-opacity:1" />
      <path
         inkscape:connector-curvature="0"
         id="path4304"
         d="m 248.60723,277.76324 c 15.09183,17.907 44.36505,9.50383 50.67271,-7.45039 2.96334,-8.001 -1.50283,-7.9375 -1.50283,-7.9375 -6.68867,16.55205 -33.86638,21.97072 -47.87872,8.48784 0,0 -5.79958,1.56605 -1.29116,6.90005 z"
         style="fill:#b87b0a;fill-opacity:1;fill-rule:evenodd;stroke:#ffffff;stroke-width:0.66092908;stroke-linecap:butt;stroke-linejoin:miter;stroke-miterlimit:4;stroke-dasharray:none;stroke-opacity:1" />
      <path
         inkscape:connector-curvature="0"
         id="path4306"
         d="m 251.10489,264.34385 c 15.113,12.00122 39.47555,6.18067 45.23289,-9.7155 0,0 4.10633,0.59267 1.43933,7.747 -6.68867,16.55205 -33.76055,21.86489 -47.87872,8.48784 -5.03758,-4.7625 1.2065,-6.51934 1.2065,-6.51934 z"
         style="fill:#b87b0a;fill-opacity:1;fill-rule:evenodd;stroke:#ffffff;stroke-width:0.66092908;stroke-linecap:butt;stroke-linejoin:miter;stroke-miterlimit:4;stroke-dasharray:none;stroke-opacity:1" />
      <path
         inkscape:connector-curvature="0"
         id="path4308"
         d="m 252.60773,257.04135 c 11.26066,9.3345 37.61288,3.25967 42.48121,-9.05933 2.43417,-6.1595 -1.143,-6.11717 -1.143,-6.11717 -4.23333,11.557 -32.68105,15.34584 -40.02588,7.34484 0,0 -7.97975,2.286 -1.31233,7.83166 z"
         style="fill:#b87b0a;fill-opacity:1;fill-rule:evenodd;stroke:#ffffff;stroke-width:0.66092908;stroke-linecap:butt;stroke-linejoin:miter;stroke-miterlimit:4;stroke-dasharray:none;stroke-opacity:1" />
      <path
         inkscape:connector-curvature="0"
         id="path4310"
         d="m 323.13449,189.75308 c 0,28.72289 -23.28305,52.00594 -52.00593,52.00594 -28.72305,0 -52.00622,-23.28305 -52.00622,-52.00594 0,-28.72305 23.28317,-52.00621 52.00622,-52.00621 28.72288,0 52.00593,23.28316 52.00593,52.00621 z"
         style="fill:#b6bac5;fill-opacity:1;fill-rule:nonzero;stroke:#ffffff;stroke-width:0.66092908;stroke-linecap:butt;stroke-linejoin:miter;stroke-miterlimit:4;stroke-dasharray:none;stroke-opacity:1" />
      <path
         inkscape:connector-curvature="0"
         id="path4312"
         d="m 275.99689,200.8018 c -17.2085,9.8425 -37.82469,5.99017 -46.05847,-8.61455 -8.2126,-14.605 -0.93133,-34.43802 16.27706,-44.28047 17.20841,-9.84242 37.82446,-5.99011 46.0583,8.61478 8.21266,14.60486 0.93133,34.43802 -16.27689,44.28024 z"
         style="fill:#e0e2e7;fill-opacity:1;fill-rule:nonzero;stroke:#ffffff;stroke-width:0.66092908;stroke-linecap:butt;stroke-linejoin:miter;stroke-miterlimit:4;stroke-dasharray:none;stroke-opacity:1" />
      <path
         inkscape:connector-curvature="0"
         id="path4314"
         d="m 262.23856,170.21625 c -6.90033,1.29117 -13.41967,-2.49767 -14.5415,-8.48772 -1.12175,-5.96897 3.59833,-11.87441 10.51983,-13.16558 6.90034,-1.29117 13.41967,2.5188 14.5415,8.48778 1.12184,5.99011 -3.59833,11.87435 -10.51983,13.16552 z"
         style="fill:#ffffff;fill-opacity:1;fill-rule:nonzero;stroke:#ffffff;stroke-width:0.66092908;stroke-linecap:butt;stroke-linejoin:miter;stroke-miterlimit:4;stroke-dasharray:none;stroke-opacity:1" />
      <path
         inkscape:connector-curvature="0"
         id="path4316"
         d="m 301.03678,147.20828 c 31.83438,55.37152 -47.43422,100.24457 -80.05179,56.34519 6.20179,22.56367 26.73324,38.20555 50.14357,38.20555 28.72288,0 52.00593,-23.28305 52.00593,-52.00594 0,-13.50433 -7.47183,-34.09935 -22.09771,-42.5448 z"
         style="fill:#777e94;fill-opacity:1;fill-rule:evenodd;stroke:#ffffff;stroke-width:0.66092908;stroke-linecap:butt;stroke-linejoin:miter;stroke-miterlimit:4;stroke-dasharray:none;stroke-opacity:1" />
      <path
         inkscape:connector-curvature="0"
         id="path4319"
         d="m 317.77933,173.87808 c 1.26999,42.20606 -42.4386,66.97077 -71.94485,58.16572 28.93475,15.93822 83.01501,-3.556 71.94485,-58.16572 z"
         style="fill:#8d96a6;fill-opacity:1;fill-rule:evenodd;stroke:#ffffff;stroke-width:0.66092908;stroke-linecap:butt;stroke-linejoin:miter;stroke-miterlimit:4;stroke-dasharray:none;stroke-opacity:1" />
    </g>
  </g>
  <g
     inkscape:groupmode="layer"
     inkscape:label="sockets"
     transform="translate(-15.381923,2.3800421)"
     id="sockets"
     style="opacity:1">
    <rect
       y="124.74678"
       x="46.329079"
       height="94.591705"
       width="51.854118"
       id="rect4171"
       style="opacity:1;fill:#000000;fill-opacity:0;stroke:#ffffff;stroke-width:1.44247544;stroke-linejoin:round;stroke-miterlimit:4;stroke-dasharray:none;stroke-dashoffset:0;stroke-opacity:0.16000001" />
    <rect
       style="opacity:1;fill:#000000;fill-opacity:0;stroke:#ffffff;stroke-width:1.43788993;stroke-linejoin:round;stroke-miterlimit:4;stroke-dasharray:none;stroke-dashoffset:0;stroke-opacity:0.16000001"
       id="rect4274"
       width="51.50013"
       height="94.637321"
       x="201.51819"
       y="135.57059" />
    <rect
       y="9.776536"
       x="205.40872"
       height="94.637321"
       width="51.50013"
       id="rect4321"
       style="opacity:1;fill:#000000;fill-opacity:0;stroke:#ffffff;stroke-width:1.43788993;stroke-linejoin:round;stroke-miterlimit:4;stroke-dasharray:none;stroke-dashoffset:0;stroke-opacity:0.16000001" />
  </g>
</svg>
